<?xml version="1.0" encoding="UTF-8"?>
<!DOCTYPE svg PUBLIC "-//W3C//DTD SVG 1.1//EN" "http://www.w3.org/Graphics/SVG/1.1/DTD/svg11.dtd">
<!-- Creator: CorelDRAW X7 -->
<svg xmlns="http://www.w3.org/2000/svg" xml:space="preserve" width="81.204mm" height="21.3715mm" version="1.1" style="shape-rendering:geometricPrecision; text-rendering:geometricPrecision; image-rendering:optimizeQuality; fill-rule:evenodd; clip-rule:evenodd"
viewBox="0 0 3050 803"
 xmlns:xlink="http://www.w3.org/1999/xlink">
 <defs>
  <style type="text/css">
   <![CDATA[
    .str0 {stroke:#002147;stroke-width:11.2683}
    .fil0 {fill:none}
    .fil1 {fill:#262F48}
    .fil2 {fill:#002147}
    .fil5 {fill:#08A9DB}
    .fil7 {fill:#F6CA40}
    .fil6 {fill:#F76F70}
    .fil4 {fill:#898989;fill-rule:nonzero}
    .fil3 {fill:#002147;fill-rule:nonzero}
   ]]>
  </style>
 </defs>
 <g id="Layer_x0020_1">
  <metadata id="CorelCorpID_0Corel-Layer"/>
  <polygon class="fil0 str0" points="173,235 249,235 249,369 173,369 "/>
  <polyline class="fil0 str0" points="250,270 451,270 574,163 "/>
  <polyline class="fil0 str0" points="231,368 613,755 494,430 296,641 "/>
  <line class="fil0 str0" x1="321" y1="463" x2="246" y2= "701" />
  <line class="fil0 str0" x1="168" y1="702" x2="494" y2= "704" />
  <line class="fil0 str0" x1="175" y1="731" x2="557" y2= "734" />
  <line class="fil0 str0" x1="507" y1="755" x2="722" y2= "756" />
  <line class="fil0 str0" x1="581" y1="211" x2="493" y2= "434" />
  <path class="fil0 str0" d="M570 77c-8,-2 -20,-13 -22,-15 -3,27 6,46 24,58 1,27 2,54 3,81 1,6 7,10 13,9 8,0 12,-4 12,-10 0,-27 -1,-55 -1,-82 21,-8 6,-64 5,-88 -6,3 -7,8 -12,13 -8,-7 -10,-23 -4,-35 -30,5 -23,46 -18,69z"/>
  <path class="fil0 str0" d="M393 115c42,0 76,35 76,77 0,42 -34,76 -76,76 -43,0 -77,-34 -77,-76 0,-42 34,-77 77,-77z"/>
  <path class="fil0 str0" d="M317 191l14 -15c8,4 14,6 22,9 4,-9 7,-17 11,-26l22 10 4 -26c6,4 13,9 18,14 1,-8 1,-13 1,-20 7,6 15,12 22,19 1,-7 1,-23 2,-29"/>
  <path class="fil0 str0" d="M178 193l0 140 15 1c0,-41 0,-80 0,-121 -2,-12 -11,-19 -15,-20z"/>
  <polygon class="fil1 str0" points="195,278 217,295 195,307 "/>
  <path class="fil2" d="M303 636c28,0 50,22 50,49 0,28 -22,50 -50,50 -27,0 -49,-22 -49,-50 0,-27 22,-49 49,-49zm25 18c5,0 9,4 9,9 0,5 -4,9 -9,9 -5,0 -10,-4 -10,-9 0,-5 5,-9 10,-9zm9 22c5,0 10,5 10,10 0,5 -5,9 -10,9 -5,0 -9,-4 -9,-9 0,-5 4,-10 9,-10zm-10 24c5,0 9,4 9,9 0,5 -4,9 -9,9 -5,0 -9,-4 -9,-9 0,-5 4,-9 9,-9zm-23 10c5,0 9,4 9,9 0,5 -4,9 -9,9 -5,0 -9,-4 -9,-9 0,-5 4,-9 9,-9zm-24 -10c5,0 9,4 9,9 0,5 -4,9 -9,9 -5,0 -9,-4 -9,-9 0,-5 4,-9 9,-9zm-9 -24c5,0 9,5 9,10 0,5 -4,9 -9,9 -5,0 -10,-4 -10,-9 0,-5 5,-10 10,-10zm10 -22c5,0 9,4 9,9 0,5 -4,9 -9,9 -5,0 -9,-4 -9,-9 0,-5 4,-9 9,-9zm23 -10c5,0 9,4 9,9 0,5 -4,10 -9,10 -5,0 -9,-5 -9,-10 0,-5 4,-9 9,-9z"/>
  <line class="fil0 str0" x1="542" y1="776" x2="758" y2= "777" />
  <line class="fil0 str0" x1="579" y1="796" x2="795" y2= "797" />
  <path class="fil3" d="M982 250l0 228 -44 0 0 -228 44 0zm99 147l0 81 -44 0 0 -228 75 0c56,0 84,24 84,71 0,23 -9,42 -25,56 -17,14 -38,21 -64,20l-26 0zm0 -112l0 78 22 0c31,0 46,-14 46,-40 0,-25 -15,-38 -45,-38l-23 0zm141 139c18,15 39,23 62,23 14,0 24,-3 31,-8 7,-5 11,-11 11,-19 0,-7 -3,-13 -9,-19 -6,-6 -20,-14 -42,-23 -19,-9 -33,-18 -41,-29 -9,-10 -13,-23 -13,-37 0,-21 8,-37 24,-49 16,-11 37,-17 63,-17 23,0 41,3 54,9l0 42c-14,-10 -32,-15 -53,-15 -12,0 -22,2 -30,7 -8,5 -11,11 -11,19 0,7 2,13 8,18 5,5 17,12 37,21 22,10 38,20 46,31 9,10 13,23 13,38 0,22 -7,38 -23,49 -15,12 -37,17 -64,17 -26,0 -47,-4 -63,-13l0 -45zm496 54l-49 0 -18 -54 -86 0 -18 54 -48 0 84 -228 52 0 83 228zm-78 -89l-28 -83c-1,-4 -2,-10 -4,-19l-1 0c0,7 -2,13 -4,18l-28 84 65 0zm264 81c-17,8 -38,12 -65,12 -34,0 -60,-10 -81,-31 -20,-20 -30,-48 -30,-82 0,-36 11,-66 34,-89 22,-23 51,-34 86,-34 23,0 41,3 56,9l0 43c-16,-9 -33,-13 -53,-13 -23,0 -41,7 -55,22 -14,15 -21,35 -21,59 0,23 6,42 20,57 13,14 31,21 53,21 20,0 39,-5 56,-15l0 41zm236 8l-49 0 -18 -54 -86 0 -18 54 -48 0 84 -228 51 0 84 228zm-78 -89l-28 -83c-1,-4 -3,-10 -4,-19l-1 0c-1,7 -2,13 -4,18l-28 84 65 0zm108 89l0 -228 75 0c81,0 122,37 122,111 0,36 -12,64 -35,85 -22,22 -52,32 -88,32l-74 0zm44 -191l0 155 28 0c24,0 43,-7 57,-22 14,-14 21,-33 21,-58 0,-24 -7,-43 -21,-56 -14,-13 -33,-19 -57,-19l-28 0zm325 191l-132 0 0 -228 127 0 0 37 -83 0 0 58 77 0 0 36 -77 0 0 61 88 0 0 36zm247 0l0 -141c0,-11 1,-27 2,-48l-1 0c-2,13 -5,23 -7,28l-60 161 -34 0 -61 -159c-2,-5 -4,-14 -8,-30l-1 0c2,17 2,35 2,55l0 134 -40 0 0 -228 64 0 53 142c4,12 7,22 9,31l1 0c2,-9 5,-19 10,-31l53 -142 62 0 0 228 -44 0zm264 -228l-75 146 0 82 -44 0 0 -81 -73 -147 51 0 41 90c0,2 2,8 5,18l1 0c1,-7 3,-12 5,-17l42 -91 47 0z"/>
  <path class="fil4" d="M1237 629l-26 0 0 81 -10 0 0 -81 -26 0 0 -9 62 0 0 9zm81 81l-10 0 0 -41 -47 0 0 41 -10 0 0 -90 10 0 0 40 47 0 0 -40 10 0 0 90zm71 0l-47 0 0 -90 45 0 0 9 -35 0 0 31 32 0 0 9 -32 0 0 32 37 0 0 9zm123 0l-14 0 -35 -41c-2,-2 -2,-3 -3,-3l0 0 0 44 -10 0 0 -90 10 0 0 42 0 0c1,-1 2,-2 3,-3l34 -39 12 0 -39 43 42 47zm84 0l-13 0 -46 -73c-1,-1 -2,-3 -3,-5l-1 0c1,2 1,6 1,12l0 66 -10 0 0 -90 13 0 46 71c2,4 3,6 3,6l0 0c0,-3 0,-7 0,-13l0 -64 10 0 0 90zm18 -44c0,-14 3,-26 11,-35 8,-8 19,-12 32,-12 12,0 22,4 30,12 7,9 11,19 11,33 0,14 -4,26 -11,34 -8,9 -18,13 -31,13 -13,0 -23,-4 -31,-12 -8,-9 -11,-20 -11,-33zm10 -1c0,11 3,20 9,27 5,7 13,10 22,10 11,0 19,-3 24,-10 6,-6 9,-15 9,-27 0,-12 -3,-21 -8,-27 -6,-7 -14,-10 -24,-10 -10,0 -17,3 -23,10 -6,7 -9,16 -9,27zm198 -45l-26 90 -11 0 -19 -66c-1,-3 -1,-6 -2,-9l0 0c0,3 -1,6 -1,9l-19 66 -12 0 -26 -90 11 0 19 69c1,3 2,6 2,9l0 0c0,-2 1,-5 2,-9l20 -69 9 0 20 70c0,2 1,5 1,8l0 0c1,-2 1,-5 2,-8l19 -70 11 0zm59 90l-46 0 0 -90 10 0 0 81 36 0 0 9zm61 0l-47 0 0 -90 45 0 0 9 -35 0 0 31 32 0 0 9 -32 0 0 32 37 0 0 9zm18 0l0 -90 24 0c32,0 47,15 47,44 0,14 -4,25 -13,33 -9,9 -21,13 -35,13l-23 0zm9 -81l0 72 14 0c12,0 21,-3 28,-10 7,-6 10,-15 10,-27 0,-23 -12,-35 -37,-35l-15 0zm147 75c-9,5 -19,7 -30,7 -13,0 -23,-4 -31,-12 -8,-8 -12,-19 -12,-33 0,-14 5,-25 13,-34 9,-9 20,-13 34,-13 10,0 18,1 24,4l0 12c-7,-5 -16,-7 -26,-7 -10,0 -18,3 -25,10 -6,7 -9,16 -9,27 0,12 3,21 9,27 6,7 14,10 24,10 8,0 14,-1 19,-4l0 -26 -20 0 0 -9 30 0 0 41zm68 6l-47 0 0 -90 45 0 0 9 -35 0 0 31 32 0 0 9 -32 0 0 32 37 0 0 9zm123 0l-14 0 -35 -41c-2,-2 -2,-3 -3,-3l0 0 0 44 -10 0 0 -90 10 0 0 42 0 0c1,-1 2,-2 3,-3l34 -39 12 0 -39 43 42 47zm22 0l-10 0 0 -90 10 0 0 90zm95 0l-12 0 -47 -73c-1,-1 -2,-3 -3,-5l0 0c0,2 1,6 1,12l0 66 -10 0 0 -90 13 0 45 71c2,4 4,6 4,6l0 0c0,-3 -1,-7 -1,-13l0 -64 10 0 0 90zm91 -6c-9,5 -19,7 -30,7 -13,0 -23,-4 -31,-12 -8,-8 -12,-19 -12,-33 0,-14 5,-25 13,-34 9,-9 20,-13 34,-13 10,0 18,1 24,4l0 12c-7,-5 -16,-7 -26,-7 -10,0 -18,3 -25,10 -6,7 -9,16 -9,27 0,12 3,21 9,27 6,7 14,10 24,10 8,0 14,-1 19,-4l0 -26 -20 0 0 -9 30 0 0 41zm21 6l0 -90 24 0c32,0 47,15 47,44 0,14 -4,25 -13,33 -9,9 -21,13 -35,13l-23 0zm10 -81l0 72 13 0c12,0 22,-3 28,-10 7,-6 10,-15 10,-27 0,-23 -12,-35 -37,-35l-14 0zm73 37c0,-14 4,-26 12,-35 8,-8 18,-12 32,-12 12,0 22,4 30,12 7,9 11,19 11,33 0,14 -4,26 -11,34 -8,9 -18,13 -32,13 -12,0 -22,-4 -30,-12 -8,-9 -12,-20 -12,-33zm11 -1c0,11 3,20 8,27 6,7 14,10 23,10 11,0 19,-3 24,-10 6,-6 9,-15 9,-27 0,-12 -3,-21 -8,-27 -6,-7 -14,-10 -24,-10 -10,0 -17,3 -23,10 -6,7 -9,16 -9,27zm173 45l0 -61c0,-5 0,-10 1,-17l-1 0c-1,4 -1,7 -2,8l-31 70 -5 0 -31 -69c-1,-2 -2,-5 -3,-9l0 0c0,2 1,8 1,17l0 61 -10 0 0 -90 13 0 28 63c2,5 4,9 4,11l0 0c1,-2 3,-5 5,-11l29 -63 12 0 0 90 -10 0z"/>
  <rect class="fil5" x="931" y="540" width="673.349" height="7.45209"/>
  <rect class="fil6" x="2358" y="540" width="673.349" height="7.45209"/>
  <rect class="fil7" x="1647" y="540" width="673.349" height="7.45209"/>
  <polygon class="fil3" points="0,298 174,298 175,369 235,369 316,452 292,527 0,527 "/>
  <polygon class="fil3" points="545,298 496,421 534,527 772,527 772,298 "/>
 </g>
</svg>
